<?xml version="1.0" standalone="no"?>
<!DOCTYPE svg PUBLIC "-//W3C//DTD SVG 20010904//EN"
 "http://www.w3.org/TR/2001/REC-SVG-20010904/DTD/svg10.dtd">
<svg version="1.0" xmlns="http://www.w3.org/2000/svg"
 width="512.000000pt" height="512.000000pt" viewBox="0 0 512.000000 512.000000"
 preserveAspectRatio="xMidYMid meet">

<g transform="translate(0.000000,512.000000) scale(0.100000,-0.100000)"
fill="#000000" stroke="none">
<path d="M2125 5104 c-400 -72 -787 -241 -1114 -487 -124 -94 -343 -306 -444
-432 -308 -382 -504 -853 -556 -1337 -26 -238 -10 -570 40 -813 203 -984 1000
-1781 1984 -1984 243 -50 575 -66 813 -40 484 52 955 248 1337 556 126 101
338 320 432 444 206 275 362 597 443 919 56 221 60 264 60 640 0 301 -3 361
-20 456 -190 1053 -1021 1884 -2074 2074 -96 18 -152 20 -465 19 -262 -1 -377
-5 -436 -15z m807 -144 c398 -61 762 -214 1088 -456 135 -100 384 -349 484
-484 242 -327 393 -685 458 -1093 25 -160 30 -505 9 -657 -99 -720 -473 -1320
-1074 -1723 -138 -93 -393 -217 -560 -272 -500 -167 -1048 -166 -1544 2 -774
261 -1369 905 -1572 1699 -60 237 -85 560 -61 814 68 738 471 1404 1095 1809
347 225 686 339 1150 385 92 9 406 -5 527 -24z"/>
<path d="M2295 4819 c-948 -119 -1718 -812 -1934 -1739 -45 -194 -73 -487 -51
-539 16 -41 64 -60 99 -40 39 22 51 55 51 149 0 236 67 525 179 780 158 356
431 678 766 902 119 79 363 197 500 243 188 61 439 104 612 105 61 0 76 4 99
23 32 28 36 78 8 108 -15 17 -31 19 -138 18 -67 -1 -152 -5 -191 -10z"/>
<path d="M4355 3528 c-94 -33 -485 -341 -796 -628 l-95 -88 -179 -27 c-98 -15
-189 -31 -202 -36 -13 -5 -26 -9 -29 -9 -2 0 -4 21 -4 48 0 26 -7 57 -15 69
-21 30 -76 39 -115 19 -18 -9 -43 -13 -59 -10 -25 5 -44 -9 -182 -138 -85 -78
-174 -159 -199 -179 -51 -41 -110 -74 -110 -61 0 5 19 35 42 68 119 169 138
199 138 225 0 29 -40 69 -69 69 -9 0 -49 -35 -90 -77 -52 -55 -69 -68 -57 -46
9 18 16 41 16 53 0 32 -35 60 -75 60 -32 0 -51 -15 -184 -140 -173 -164 -254
-231 -302 -250 -47 -18 -69 -39 -69 -65 0 -77 102 -54 240 54 60 47 65 49 68
28 13 -95 85 -119 171 -57 30 20 30 20 41 1 11 -22 64 -41 101 -35 13 2 41 6
61 9 22 3 67 27 112 60 l75 53 11 -34 c24 -71 94 -93 175 -54 40 20 148 123
191 184 l21 29 28 -19 c24 -16 45 -18 122 -17 l93 3 -90 -101 c-69 -77 -90
-107 -90 -129 0 -31 31 -60 64 -60 12 0 96 75 220 199 l201 198 139 16 c77 9
142 15 144 13 2 -2 -33 -59 -77 -126 -45 -67 -84 -132 -87 -145 -14 -54 53
-120 99 -97 12 6 38 16 59 22 20 6 68 33 107 61 62 43 71 47 71 29 0 -30 35
-60 73 -60 27 0 44 12 112 83 44 45 91 92 104 102 l24 20 -22 -42 c-31 -63
-25 -117 18 -150 19 -15 90 -17 125 -3 37 14 46 58 17 82 l-23 18 81 87 c45
49 93 111 107 139 24 49 24 54 11 87 -23 55 -91 66 -168 26 l-42 -21 -16 21
c-22 29 -71 44 -103 32 -14 -5 -42 -24 -61 -41 -34 -29 -36 -30 -42 -10 -3 11
-19 23 -36 27 l-30 8 62 90 c246 360 289 431 289 478 0 38 -19 73 -47 86 -28
13 -28 13 -68 -1z m-290 -456 l-146 -210 -47 -6 c-26 -3 -78 -9 -117 -12 l-70
-7 206 179 c267 233 313 272 317 269 2 -1 -63 -97 -143 -213z m-1149 -354
c-18 -26 -22 -17 -5 14 6 11 13 17 16 15 3 -3 -2 -16 -11 -29z m1204 29 c0 -2
-45 -43 -100 -91 -55 -48 -100 -85 -100 -82 0 4 25 44 57 91 56 85 56 85 100
85 23 0 43 -2 43 -3z m-1296 -134 c7 -17 -32 -65 -66 -84 -16 -9 -17 -7 -8 17
13 34 49 84 60 84 4 0 11 -7 14 -17z"/>
<path d="M1694 3347 c-342 -94 -629 -178 -638 -186 -16 -14 -22 -67 -8 -87 23
-35 41 -33 477 46 237 43 431 77 432 76 2 -2 -457 -477 -1042 -1081 -368 -380
-405 -421 -405 -445 0 -23 41 -70 61 -70 37 0 1326 313 1338 325 34 34 3 115
-44 115 -12 0 -250 -54 -530 -120 -279 -67 -509 -119 -511 -118 -2 2 283 274
634 603 1034 975 971 913 984 956 20 70 -25 142 -97 154 -20 3 -237 -53 -651
-168z"/>
<path d="M4733 2639 c-38 -14 -53 -49 -53 -124 -1 -171 -44 -422 -105 -610
-46 -137 -164 -381 -243 -500 -178 -266 -415 -492 -690 -656 -296 -176 -681
-289 -992 -289 -94 0 -127 -12 -149 -51 -20 -35 -1 -83 40 -99 52 -22 345 6
539 51 984 229 1710 1096 1747 2087 5 134 4 154 -11 171 -20 22 -55 31 -83 20z"/>
<path d="M4137 2229 c-8 -13 -39 -81 -68 -152 -29 -70 -56 -124 -60 -120 -4 5
-33 70 -64 146 -45 106 -62 137 -76 137 -11 0 -19 -3 -19 -7 -1 -5 -23 -118
-49 -253 -34 -170 -46 -249 -39 -257 6 -7 32 -13 59 -13 56 0 61 7 74 98 4 28
10 52 14 52 3 0 24 -42 46 -92 24 -56 47 -94 56 -96 13 -2 28 23 60 98 l44
101 13 -63 c7 -35 17 -70 21 -78 12 -22 109 -26 117 -6 8 22 -86 498 -101 515
-11 11 -15 9 -28 -10z"/>
<path d="M2860 2177 c-49 -16 -133 -102 -148 -153 -40 -137 32 -271 167 -310
68 -20 127 -13 193 23 169 92 163 337 -11 426 -60 30 -134 35 -201 14z m156
-134 c20 -12 36 -38 47 -75 10 -29 -13 -86 -44 -112 -53 -45 -129 -31 -170 30
-68 103 62 225 167 157z"/>
<path d="M3397 2176 c-95 -34 -157 -124 -157 -228 0 -70 19 -121 63 -166 53
-55 102 -76 182 -76 145 0 245 99 245 242 0 170 -169 286 -333 228z m176 -156
c83 -93 -31 -233 -143 -175 -41 21 -60 53 -60 101 0 109 129 156 203 74z"/>
<path d="M2340 2120 l0 -59 69 -3 70 -3 -100 -158 c-56 -88 -98 -165 -95 -173
7 -19 355 -21 374 -2 13 13 16 75 6 102 -5 13 -22 16 -85 16 -43 0 -79 2 -79
5 0 3 43 74 95 157 52 82 95 156 95 164 0 11 -32 14 -175 14 l-175 0 0 -60z"/>
</g>
</svg>
